<svg width="155" height="28" viewBox="0 0 155 28" fill="none" xmlns="http://www.w3.org/2000/svg">
<g clip-path="url(#clip0_6_31)">
<path d="M68.56 18.34H68.34L59.19 6.67999C58.6 5.92999 57.71 5.49999 56.76 5.49999C55.05 5.49999 53.67 6.88999 53.67 8.58999V21.49H56.78V8.63999H56.98L66.12 20.3C66.71 21.05 67.6 21.48 68.56 21.48H68.58C70.29 21.48 71.67 20.09 71.67 18.39V5.48999H68.56V18.34Z" fill="white"/>
<path d="M78.78 21.49H90.41V18.81H78.86V14.68H88.7V12.31H78.86V8.18H90.41V5.5H78.78C77.11 5.5 75.75 6.86 75.75 8.53V18.46C75.75 20.13 77.11 21.49 78.78 21.49Z" fill="white"/>
<path d="M108.82 13.47C108.82 14.58 108.71 15.99 107.86 17.1C106.95 18.28 105.41 18.86 103.15 18.86C98.13 18.86 97.48 15.98 97.48 13.47V5.5H94.37V13.47C94.37 19.18 97.08 21.73 103.14 21.73C106.24 21.73 108.44 21.06 109.86 19.68C111.24 18.34 111.91 16.32 111.91 13.47V5.5H108.8V13.47H108.82Z" fill="white"/>
<path d="M124.1 5.25C118.2 5.25 115.33 7.94 115.33 13.46C115.33 18.98 118.2 21.72 124.1 21.72C130 21.72 132.87 19.02 132.87 13.46C132.87 7.9 130 5.25 124.1 5.25ZM129.77 13.47C129.77 17.19 128.02 18.86 124.1 18.86C120.18 18.86 118.43 17.2 118.43 13.47C118.43 9.74 120.12 8.13 124.1 8.13C126.1 8.13 127.51 8.55 128.42 9.42C129.32 10.28 129.76 11.61 129.76 13.47H129.77Z" fill="white"/>
<path d="M151.33 18.34H151.11L141.96 6.67999C141.37 5.92999 140.48 5.49999 139.53 5.49999C137.82 5.49999 136.44 6.88999 136.44 8.58999V21.49H139.55V8.63999H139.75L148.89 20.3C149.48 21.05 150.37 21.48 151.33 21.48H151.35C153.06 21.48 154.44 20.09 154.44 18.39V5.48999H151.33V18.34Z" fill="white"/>
<path d="M25.98 11.54V18.83H25.8L18 6.34001C17.67 5.81001 17.22 5.38001 16.7 5.08001C16.68 5.07001 16.66 5.06001 16.65 5.05001C16.1 4.75001 15.48 4.58001 14.84 4.58001C14.14 4.58001 13.48 4.77001 12.92 5.11001C11.83 5.76001 11.1 6.95001 11.1 8.32001V26.98C4.52999 25.75 -0.360011 19.83 0.0199893 12.84C0.399989 5.92001 6.04999 0.330006 12.98 0.0100061C15.69 -0.109994 18.25 0.560006 20.42 1.82001C20.56 1.90001 20.71 1.99001 20.84 2.08001C24.08 4.11001 25.98 7.72001 25.98 11.55V11.54Z" fill="white"/>
<path d="M40.82 13.96C40.64 21.24 34.62 27.15 27.34 27.22C24.82 27.24 22.45 26.58 20.42 25.4C20.4 25.39 20.37 25.37 20.35 25.36C16.94 23.36 14.88 19.65 14.88 15.69V8.38002H15.06L22.83 20.87C23.17 21.42 23.64 21.86 24.18 22.16C24.7 22.45 25.3 22.62 25.92 22.63C25.95 22.63 25.97 22.63 26 22.63C26.03 22.63 26.07 22.63 26.1 22.63C26.78 22.61 27.42 22.41 27.97 22.07C29.03 21.41 29.74 20.23 29.74 18.89V0.240021C36.16 1.44002 40.99 7.15002 40.82 13.96Z" fill="white"/>
</g>
<defs>
<clipPath id="clip0_6_31">
<rect width="154.44" height="27.22" fill="white"/>
</clipPath>
</defs>
</svg>
