<svg width="41" height="28" viewBox="0 0 41 28" fill="none" xmlns="http://www.w3.org/2000/svg">
  <path
    d="M25.98 11.54V18.83H25.8L18 6.34001C17.67 5.81001 17.22 5.38001 16.7 5.08001C16.68 5.07001 16.66 5.06001 16.65 5.05001C16.1 4.75001 15.48 4.58001 14.84 4.58001C14.14 4.58001 13.48 4.77001 12.92 5.11001C11.83 5.76001 11.1 6.95001 11.1 8.32001V26.98C4.52999 25.75 -0.360011 19.83 0.0199893 12.84C0.399989 5.92001 6.04999 0.330006 12.98 0.0100061C15.69 -0.109994 18.25 0.560006 20.42 1.82001C20.56 1.90001 20.71 1.99001 20.84 2.08001C24.08 4.11001 25.98 7.72001 25.98 11.55V11.54Z"
    fill="#0637ae" />
  <path
    d="M40.82 13.96C40.64 21.24 34.62 27.15 27.34 27.22C24.82 27.24 22.45 26.58 20.42 25.4C20.4 25.39 20.37 25.37 20.35 25.36C16.94 23.36 14.88 19.65 14.88 15.69V8.38002H15.06L22.83 20.87C23.17 21.42 23.64 21.86 24.18 22.16C24.7 22.45 25.3 22.62 25.92 22.63C25.95 22.63 25.97 22.63 26 22.63C26.03 22.63 26.07 22.63 26.1 22.63C26.78 22.61 27.42 22.41 27.97 22.07C29.03 21.41 29.74 20.23 29.74 18.89V0.240021C36.16 1.44002 40.99 7.15002 40.82 13.96Z"
    fill="#0637ae" />
</svg>