<?xml version="1.0" encoding="UTF-8"?>
<svg id="Camada_2" data-name="Camada 2" xmlns="http://www.w3.org/2000/svg" viewBox="0 0 134.75 21.31">
  <defs>
    <style>
      .cls-1 {
        fill: #00213e;
      }
    </style>
  </defs>
  <g id="Camada_1-2" data-name="Camada 1">
    <g>
      <path class="cls-1" d="M19.26,16.9h-.28L7.15,1.81c-.76-.97-1.92-1.53-3.15-1.53h0C1.79.28,0,2.07,0,4.28v16.69h4.02V4.36h.25l11.83,15.08c.76.97,1.92,1.53,3.15,1.53h.03c2.21,0,4-1.79,4-4V.28h-4.02v16.62Z"/>
      <path class="cls-1" d="M32.75,20.97h18.36v-3.47h-18.26v-5.34h16.06v-3.07h-16.06V3.75h18.26V.28h-18.36c-2.16,0-3.92,1.75-3.92,3.92v12.85c0,2.16,1.75,3.92,3.92,3.92Z"/>
      <path class="cls-1" d="M75.16,10.6c0,1.43-.14,3.26-1.25,4.69-1.18,1.53-3.18,2.27-6.12,2.27-6.53,0-7.37-3.72-7.37-6.97V.28h-4.04v10.31c0,7.39,3.52,10.68,11.41,10.68,4.03,0,6.89-.87,8.74-2.66,1.79-1.73,2.66-4.35,2.66-8.03V.28h-4.04v10.31Z"/>
      <path class="cls-1" d="M95.01,0c-7.64,0-11.35,3.47-11.35,10.62s3.71,10.68,11.35,10.68,11.35-3.5,11.35-10.68-3.71-10.62-11.35-10.62ZM102.33,10.62c0,4.82-2.26,6.97-7.33,6.97s-7.33-2.15-7.33-6.97,2.19-6.9,7.33-6.9c2.59,0,4.42.55,5.59,1.67,1.17,1.12,1.74,2.83,1.74,5.23Z"/>
      <path class="cls-1" d="M130.73,16.92h-.28l-11.83-15.08c-.76-.97-1.92-1.53-3.15-1.53h0c-2.21,0-4,1.79-4,4v16.69h4.02V4.38h.25l11.83,15.08c.76.97,1.92,1.53,3.15,1.53h.03c2.21,0,4-1.79,4-4V.31h-4.02v16.62Z"/>
    </g>
  </g>
</svg>