<?xml version="1.0" encoding="UTF-8"?>
<svg id="Camada_2" data-name="Camada 2" xmlns="http://www.w3.org/2000/svg" viewBox="0 0 103.67 69.11">
  <defs>
    <style>
      .cls-1 {
        fill: #00213e;
      }
    </style>
  </defs>
  <g id="Camada_1-2" data-name="Camada 1">
    <g>
      <path class="cls-1" d="M65.97,29.32v18.51h-.47l-19.81-31.73c-.84-1.34-1.98-2.43-3.31-3.2-.05-.03-.09-.05-.14-.08-1.39-.77-2.97-1.19-4.61-1.19-1.78,0-3.45.49-4.87,1.34-2.77,1.66-4.62,4.68-4.62,8.15v47.39C11.52,65.39-.92,50.36.05,32.62,1.02,15.03,15.36.83,32.95.04c6.89-.31,13.38,1.4,18.89,4.59.36.21.73.43,1.08.65,8.22,5.16,13.05,14.33,13.05,24.04Z"/>
      <path class="cls-1" d="M103.65,35.45c-.46,18.49-15.74,33.5-34.24,33.66-6.41.05-12.42-1.63-17.58-4.62-.06-.03-.12-.07-.18-.11-8.67-5.09-13.88-14.51-13.88-24.56v-18.57h.46l19.74,31.71c.87,1.38,2.05,2.51,3.44,3.28,0,0,0,0,.01,0,1.33.74,2.84,1.16,4.41,1.19.07,0,.13,0,.2,0,.08,0,.17,0,.25,0,1.74-.04,3.36-.55,4.74-1.41,2.7-1.67,4.5-4.67,4.5-8.08V.6c16.3,3.06,28.58,17.55,28.14,34.85Z"/>
    </g>
  </g>
</svg>