<?xml version="1.0" encoding="UTF-8"?>
<svg id="Camada_2" data-name="Camada 2" xmlns="http://www.w3.org/2000/svg" viewBox="0 0 134.75 70.85">
  <defs>
    <style>
      .cls-1 {
        fill: #0637ae;
      }
    </style>
  </defs>
  <g id="Camada_1-2" data-name="Camada 1">
    <g>
      <g>
        <path class="cls-1" d="M19.26,66.44h-.28l-11.83-15.08c-.76-.97-1.92-1.53-3.15-1.53h0c-2.21,0-4,1.79-4,4v16.69h4.02v-16.62h.25l11.83,15.08c.76.97,1.92,1.53,3.15,1.53h.03c2.21,0,4-1.79,4-4v-16.69h-4.02v16.62Z"/>
        <path class="cls-1" d="M32.75,70.52h18.36v-3.47h-18.26v-5.34h16.06v-3.07h-16.06v-5.34h18.26v-3.47h-18.36c-2.16,0-3.92,1.75-3.92,3.92v12.85c0,2.16,1.75,3.92,3.92,3.92Z"/>
        <path class="cls-1" d="M75.16,60.14c0,1.43-.14,3.26-1.25,4.69-1.18,1.53-3.18,2.27-6.12,2.27-6.53,0-7.37-3.72-7.37-6.97v-10.31h-4.04v10.31c0,7.39,3.52,10.68,11.41,10.68,4.03,0,6.89-.87,8.74-2.66,1.79-1.73,2.66-4.35,2.66-8.03v-10.31h-4.04v10.31Z"/>
        <path class="cls-1" d="M95.01,49.55c-7.64,0-11.35,3.47-11.35,10.62s3.71,10.68,11.35,10.68,11.35-3.5,11.35-10.68-3.71-10.62-11.35-10.62ZM102.33,60.17c0,4.82-2.26,6.97-7.33,6.97s-7.33-2.15-7.33-6.97,2.19-6.9,7.33-6.9c2.59,0,4.42.55,5.59,1.67,1.17,1.12,1.74,2.83,1.74,5.23Z"/>
        <path class="cls-1" d="M130.73,66.47h-.28l-11.83-15.08c-.76-.97-1.92-1.53-3.15-1.53h0c-2.21,0-4,1.79-4,4v16.69h4.02v-16.62h.25l11.83,15.08c.76.97,1.92,1.53,3.15,1.53h.03c2.21,0,4-1.79,4-4v-16.69h-4.02v16.62Z"/>
      </g>
      <g>
        <path class="cls-1" d="M74.58,14.93v9.43h-.24l-10.09-16.16c-.43-.68-1.01-1.24-1.68-1.63-.02-.01-.05-.03-.07-.04-.71-.39-1.51-.61-2.35-.61-.91,0-1.76.25-2.48.68-1.41.84-2.35,2.39-2.35,4.15v24.14c-8.47-1.59-14.81-9.25-14.31-18.29C41.49,7.66,48.8.42,57.76.02c3.51-.16,6.81.71,9.62,2.34.19.11.37.22.55.33,4.19,2.63,6.65,7.3,6.65,12.24Z"/>
        <path class="cls-1" d="M93.77,18.06c-.24,9.42-8.02,17.07-17.44,17.15-3.26.03-6.33-.83-8.96-2.35-.03-.02-.06-.04-.09-.06-4.42-2.59-7.07-7.39-7.07-12.51v-9.46h.24l10.06,16.16c.44.71,1.05,1.28,1.75,1.67,0,0,0,0,0,0,.68.38,1.45.59,2.24.61.04,0,.07,0,.1,0,.04,0,.09,0,.13,0,.88-.02,1.71-.28,2.42-.72,1.38-.85,2.29-2.38,2.29-4.11V.31c8.3,1.56,14.56,8.94,14.33,17.75Z"/>
      </g>
    </g>
  </g>
</svg>