<svg width="34" height="34" viewBox="0 0 34 34" fill="none" xmlns="http://www.w3.org/2000/svg">
<g clip-path="url(#clip0_9_92)">
<path d="M17 0C7.6251 0 0 7.62191 0 16.9929V27.4446C0 28.0845 0 28.6675 0.0284519 29.151C0.0569038 29.5918 0.113808 30.1464 0.327197 30.6725C0.839331 32.0661 1.93473 33.1468 3.31464 33.6587C3.75565 33.8151 4.2251 33.9147 4.85105 33.9431C5.43431 33.9858 6.11715 33.9858 6.89958 33.9858H17.0142C26.3891 33.9858 34.0142 26.3639 34.0142 16.9929C34.0142 7.62191 26.3749 0 17 0ZM17 25.8235H8.36485C7.48284 25.8235 6.7431 25.1978 6.7431 24.4442C6.7431 23.6905 7.46862 23.0648 8.36485 23.0648H17C17.8962 23.0648 18.6218 23.6905 18.6218 24.4442C18.6218 25.1978 17.8962 25.8235 17 25.8235ZM25.6351 19.4672H8.36485C7.48284 19.4672 6.7431 18.8415 6.7431 18.0878C6.7431 17.3342 7.46862 16.7085 8.36485 16.7085H25.6351C26.5314 16.7085 27.2569 17.3342 27.2569 18.0878C27.2569 18.8415 26.5314 19.4672 25.6351 19.4672ZM25.6351 13.0824H8.36485C7.48284 13.0824 6.7431 12.4567 6.7431 11.7031C6.7431 10.9494 7.46862 10.3237 8.36485 10.3237H25.6351C26.5314 10.3237 27.2569 10.9494 27.2569 11.7031C27.2569 12.4567 26.5314 13.0824 25.6351 13.0824Z" fill="#CB984D"/>
</g>
<defs>
<clipPath id="clip0_9_92">
<rect width="34" height="34" fill="white"/>
</clipPath>
</defs>
</svg>
