<svg width="40" height="50" viewBox="0 0 40 50" fill="none" xmlns="http://www.w3.org/2000/svg">
<path d="M12.9974 46.2341C12.9974 45.5574 13.5431 45.0117 14.2198 45.0117H26.5096C27.1863 45.0117 27.7321 45.5574 27.7321 46.2341V47.4565C27.7321 48.81 26.6406 49.9232 25.2654 49.9232H15.4423C14.0889 49.9232 12.9756 48.8318 12.9756 47.4565V46.2341H12.9974Z" fill="#D39E50"/>
<path d="M30.1768 37.4588C36.0489 34.0535 40 27.723 40 20.4321C40 9.583 31.2028 0.785858 20.3537 0.785858C9.50466 0.785858 0.70752 9.583 0.70752 20.4321C0.70752 27.7012 4.65859 34.0535 10.5306 37.4588V37.6334C10.5306 38.9868 11.6221 40.1001 12.9973 40.1001H16.6864C17.3631 40.1001 17.9089 39.5544 17.9089 38.8777V28.8363L13.7177 24.6451C12.7572 23.6846 12.7572 22.1347 13.7177 21.1743C14.6782 20.2138 16.228 20.2138 17.1885 21.1743L20.3537 24.3395L23.519 21.1743C24.4795 20.2138 26.0293 20.2138 26.9898 21.1743C27.9503 22.1347 27.9503 23.6846 26.9898 24.6451L22.7986 28.8363V38.8777C22.7986 39.5544 23.3443 40.1001 24.021 40.1001H27.7102C29.0636 40.1001 30.1768 39.0087 30.1768 37.6334V37.4588Z" fill="#D39E50"/>
</svg>
