<svg width="52" height="52" viewBox="0 0 52 52" fill="none" xmlns="http://www.w3.org/2000/svg">
<path d="M11.4602 48.3079C11.4602 46.7362 12.7263 45.4919 14.2762 45.4919H36.8911C38.4628 45.4919 39.7071 46.758 39.7071 48.3079C39.7071 49.8577 38.441 51.1238 36.8911 51.1238H14.2762C12.7045 51.1238 11.4602 49.8577 11.4602 48.3079Z" fill="#D39E50"/>
<path fill-rule="evenodd" clip-rule="evenodd" d="M14.0797 40.0345C9.32095 40.1218 6.9634 40.1655 5.12976 39.2705C3.5144 38.4847 2.20465 37.2186 1.35332 35.625C0.392834 33.8351 0.349176 31.4557 0.261859 26.6969L0.0435681 14.2762C-0.0437484 9.53924 -0.0874067 7.15986 0.807588 5.32622C1.59344 3.71086 2.85953 2.40111 4.45305 1.54978C6.24304 0.589296 8.62242 0.545638 13.3812 0.458322L37.1094 0.0435681C41.8682 -0.0437484 44.2257 -0.0874067 46.0594 0.807588C47.6747 1.59344 48.9845 2.85953 49.8358 4.45305C50.7963 6.24304 50.84 8.62242 50.9273 13.3812L51.1456 25.8238C51.2329 30.5825 51.2765 32.9401 50.3815 34.7737C49.5957 36.3891 48.3296 37.6988 46.7361 38.5502C44.9461 39.5106 42.5667 39.5543 37.808 39.6416L14.0797 40.0782V40.0345ZM8.46961 11.875C8.44778 10.3251 9.69204 9.01534 11.2419 8.99351L31.0191 8.64425C32.569 8.62242 33.8787 9.86668 33.9006 11.4165C33.9224 12.9664 32.6781 14.2762 31.1283 14.298L11.3511 14.6473C9.80119 14.6691 8.49144 13.4248 8.46961 11.875ZM11.4602 20.301C9.91033 20.3228 8.66607 21.6108 8.6879 23.1824C8.70973 24.7541 9.99765 25.9766 11.5693 25.9547L17.2231 25.8456C18.773 25.8238 20.0172 24.5359 19.9954 22.9642C19.9736 21.3925 18.6856 20.17 17.1139 20.1919L11.4602 20.301Z" fill="#D39E50"/>
</svg>
