<svg width="32" height="41" viewBox="0 0 32 41" fill="none" xmlns="http://www.w3.org/2000/svg">
<g clip-path="url(#clip0_9_114)">
<path d="M10.0089 37.9205C10.0089 37.3556 10.4533 36.9 11.0045 36.9H21.0133C21.5645 36.9 22.0089 37.3556 22.0089 37.9205V38.9409C22.0089 40.0707 21.12 41 20 41H12C10.8978 41 9.99112 40.0889 9.99112 38.9409V37.9205H10.0089Z" fill="#D39E50"/>
<path d="M24 30.6133C28.7822 27.7707 32 22.4862 32 16.4C32 7.34356 24.8356 0 16 0C7.16444 0 0 7.34356 0 16.4C0 22.468 3.21778 27.7707 8 30.6133V30.7591C8 31.8889 8.88889 32.8182 10.0089 32.8182H13.0133C13.5644 32.8182 14.0089 32.3627 14.0089 31.7978V23.4156L10.5956 19.9169C9.81333 19.1151 9.81333 17.8213 10.5956 17.0196C11.3778 16.2178 12.64 16.2178 13.4222 17.0196L16 19.6618L18.5778 17.0196C19.36 16.2178 20.6222 16.2178 21.4044 17.0196C22.1867 17.8213 22.1867 19.1151 21.4044 19.9169L17.9911 23.4156V31.7978C17.9911 32.3627 18.4356 32.8182 18.9867 32.8182H21.9911C23.0933 32.8182 24 31.9071 24 30.7591V30.6133Z" fill="#D39E50"/>
</g>
<defs>
<clipPath id="clip0_9_114">
<rect width="32" height="41" fill="white"/>
</clipPath>
</defs>
</svg>
