<svg width="62" height="50" viewBox="0 0 62 50" fill="none" xmlns="http://www.w3.org/2000/svg">
<path d="M37.0932 43.7674C37.0932 47.1509 34.3427 49.9014 30.9592 49.9014C27.5757 49.9014 24.8252 47.1509 24.8252 43.7674C24.8252 40.3839 27.5757 37.6334 30.9592 37.6334C34.3427 37.6334 37.0932 40.3839 37.0932 43.7674Z" fill="#D39E50"/>
<path d="M30.9375 0.785858C19.3899 0.785858 8.91188 5.34815 1.18437 12.7482C0.00559379 13.8833 -0.0817193 15.717 0.966079 16.9612L16.9668 35.7343C17.5562 36.411 18.4075 36.8039 19.3025 36.8039C20.1975 36.8039 21.0489 36.411 21.6383 35.7343C23.8867 33.1148 27.2265 31.4776 30.9375 31.4776C34.6484 31.4776 37.9664 33.1148 40.2367 35.7343C40.8261 36.411 41.6774 36.8039 42.5724 36.8039C43.4674 36.8039 44.3187 36.411 44.9081 35.7343L60.9307 16.9612C61.9785 15.717 61.8912 13.8833 60.7124 12.7482C52.9849 5.34815 42.5069 0.785858 30.9593 0.785858H30.9375Z" fill="#D39E50"/>
</svg>
