<svg width="235" height="40" viewBox="0 0 235 40" fill="none" xmlns="http://www.w3.org/2000/svg">
<path d="M41.0753 13.7899C41.0753 6.68025 35.3685 0.921408 28.323 0.921408V25.2632C28.3054 25.5031 28.1821 26.4007 27.2749 26.4007C25.3815 25.7519 21.1894 23.2725 16.9973 13.7277C11.3345 0.82365 0.334662 0.921408 0.334662 0.921408H0.0616482L0 13.7277C0 13.7277 5.66283 13.7277 11.3345 26.6318C16.9973 39.5358 28.3318 39.5358 28.3318 39.5358V27.9915C28.3494 27.7693 28.4815 26.6407 29.7233 26.5873C36.1083 25.8853 41.0842 20.4286 41.0842 13.7899H41.0753Z" fill="black"/>
<path d="M68.9227 29.0226C68.7906 29.5825 68.5705 30.0179 68.2622 30.3112C67.954 30.6045 67.5665 30.7556 67.0821 30.7556C66.6329 30.7556 66.2542 30.6045 65.9636 30.3112C65.673 30.0179 65.4352 29.5825 65.2414 29.0226L58.4954 6.59155H55.0255L62.0886 29.8668C62.5113 31.2355 63.1542 32.2664 64.0085 32.9684C64.8628 33.6705 65.8843 34.0171 67.0821 34.0171C68.2798 34.0171 69.2926 33.6705 70.1381 32.9684C70.9747 32.2664 71.6088 31.2355 72.0316 29.8668L79.1387 6.59155H75.6688L68.9227 29.0226Z" fill="black"/>
<path d="M96.682 7.64023C94.9383 6.93815 92.8951 6.59155 90.5525 6.59155H82.4149V33.5283H85.8055V25.5122H90.711C92.9479 25.5122 94.9295 25.1656 96.6556 24.4813C98.3818 23.797 99.738 22.7483 100.724 21.3441C101.711 19.9311 102.204 18.1537 102.204 16.0119C102.204 13.8701 101.72 12.1371 100.751 10.7596C99.7821 9.37321 98.4258 8.33342 96.682 7.64023ZM97.6772 19.6378C96.9727 20.5798 96.0039 21.2641 94.7798 21.6907C93.5556 22.1173 92.1729 22.3395 90.6317 22.3395H85.8055V9.77313H90.6317C92.2522 9.77313 93.6701 9.99531 94.8854 10.4397C96.092 10.884 97.0431 11.5594 97.7213 12.4748C98.3994 13.3902 98.7429 14.5722 98.7429 16.0208C98.7429 17.4694 98.3906 18.7047 97.686 19.6467L97.6772 19.6378Z" fill="black"/>
<path d="M233.277 17.9314C232.581 16.4561 231.56 15.3097 230.221 14.4832C228.882 13.6567 227.253 13.2479 225.351 13.2479C223.906 13.2479 222.568 13.5412 221.344 14.1188C220.155 14.6876 219.186 15.4608 218.429 16.4206V6.42261H215.126V33.5016H218.429V23.6369C218.429 22.2327 218.702 20.9886 219.256 19.9043C219.802 18.8201 220.569 17.9669 221.546 17.3448C222.524 16.7227 223.642 16.4117 224.902 16.4117C226.24 16.4117 227.368 16.7405 228.283 17.3893C229.199 18.038 229.878 18.9001 230.335 19.9665C230.793 21.033 231.022 22.2061 231.022 23.4769V33.5016H234.325V23.1481C234.325 21.1485 233.973 19.4067 233.277 17.9314Z" fill="black"/>
<path d="M158.339 13.0347C156.807 12.1015 154.993 11.6394 152.888 11.6394C150.783 11.6394 148.977 12.146 147.392 13.1502C145.807 14.1545 144.565 15.5053 143.667 17.1938C142.769 18.8824 142.328 20.7487 142.328 22.7838C142.328 24.9345 142.813 26.863 143.781 28.5515C144.75 30.2401 146.071 31.5732 147.744 32.5507C149.418 33.5283 151.311 34.0171 153.416 34.0171C155.521 34.0171 157.247 33.555 158.85 32.6218C160.453 31.6887 161.73 30.3379 162.681 28.5604L159.916 27.0763C159.255 28.3294 158.339 29.2447 157.185 29.8313C156.032 30.4178 154.764 30.7022 153.381 30.7022C151.822 30.7022 150.448 30.3201 149.268 29.5647C148.088 28.8093 147.181 27.7784 146.564 26.4897C146.177 25.6899 145.957 24.819 145.851 23.8947H163.156V22.2328C163.156 20.2243 162.734 18.4291 161.897 16.8384C161.06 15.2476 159.88 13.9945 158.348 13.0613L158.339 13.0347ZM145.965 21.1841C146.106 19.9577 146.476 19.0512 147.066 18.0825C147.656 17.105 148.449 16.3318 149.444 15.7719C150.439 15.2031 151.584 14.9187 152.888 14.9187C154.191 14.9187 155.283 15.1854 156.261 15.7275C157.238 16.2696 158.031 17.0161 158.621 17.9759C159.211 18.9357 159.537 19.8777 159.599 21.193H145.965V21.1841Z" fill="black"/>
<path d="M183.148 13.1856C181.457 12.208 179.564 11.7192 177.459 11.7192C175.354 11.7192 173.452 12.2169 171.77 13.2034C170.079 14.1899 168.749 15.5318 167.762 17.2204C166.785 18.9089 166.292 20.7752 166.292 22.8103C166.292 24.8455 166.759 26.7118 167.701 28.4003C168.634 30.0889 169.911 31.4397 171.505 32.4617C173.108 33.4837 174.914 33.9903 176.939 33.9903C178.842 33.9903 180.506 33.5459 181.942 32.6572C183.333 31.7952 184.434 30.631 185.253 29.2002V33.5104H188.626V22.8103C188.626 20.713 188.133 18.8289 187.155 17.1581C186.178 15.4874 184.839 14.1632 183.148 13.1856ZM184.082 26.7207C183.421 27.9026 182.505 28.8358 181.352 29.5379C180.198 30.2399 178.903 30.5865 177.459 30.5865C176.015 30.5865 174.764 30.2399 173.61 29.5379C172.457 28.8358 171.549 27.9026 170.88 26.7207C170.22 25.5387 169.885 24.25 169.885 22.8548C169.885 21.4595 170.22 20.1353 170.88 18.9711C171.541 17.8069 172.457 16.8738 173.61 16.1806C174.764 15.4785 176.05 15.1319 177.459 15.1319C178.868 15.1319 180.198 15.4785 181.352 16.1806C182.505 16.8826 183.412 17.8069 184.082 18.9711C184.742 20.1353 185.077 21.4328 185.077 22.8548C185.077 24.2767 184.742 25.5387 184.082 26.7207Z" fill="black"/>
<path d="M196.772 6.60913H193.223V33.5104H196.772V6.60913Z" fill="black"/>
<path d="M206.222 29.4934C205.43 28.6758 205.033 27.5293 205.033 26.0452V15.3896H210.749V12.1991H205.033V6.60913H201.484V26.1696C201.484 27.716 201.783 29.0846 202.374 30.2755C202.964 31.4663 203.827 32.3906 204.972 33.0482C206.108 33.7059 207.49 34.0347 209.102 34.0347C209.771 34.0347 210.432 33.9458 211.084 33.7681V30.4976C210.538 30.6398 209.974 30.7198 209.41 30.7198C208.08 30.7198 207.024 30.311 206.231 29.4934H206.222Z" fill="black"/>
<path d="M134.472 18.9711H119.809L119.879 6.5647H116.348V33.537H119.879L119.809 22.3837H134.472L134.534 33.537H138.18V6.5647H134.534L134.472 18.9711Z" fill="black"/>
</svg>
