<svg width="180" height="43" viewBox="0 0 180 43" fill="none" xmlns="http://www.w3.org/2000/svg">
<path d="M21.5064 39.1406C20.3791 39.185 16.7154 39.1139 15.2887 39.1406C17.5433 34.937 20.2646 30.7245 22.4311 26.4676C24.4391 22.5306 28.455 21.7752 32.2332 21.0109V18.9847C24.624 18.6914 22.3959 13.7946 22.3959 13.7946L15.2271 2.88126H21.6385C30.4542 2.88126 35.6238 10.773 37.0065 13.2081L38.6974 12.4793L35.8616 0.277344L1.2241 0.321779L1.25933 2.81905C1.25933 2.81905 5.42499 2.80128 10.3128 12.4793C11.8981 15.6165 14.6282 18.0071 17.9131 19.1891L18.2919 19.3224V20.2733C18.0453 20.3799 17.7899 20.4955 17.5433 20.6021C14.3728 22.0063 11.8364 24.5569 10.4537 27.7651C8.19914 33.0174 4.59713 38.2963 0.334595 39.2384L1.13603 42.0733H35.8C36.9801 37.381 37.6846 32.9285 38.715 28.2361L37.0065 27.4985C33.8889 33.7906 28.5607 38.9007 21.5328 39.1406H21.5064Z" fill="black"/>
<path d="M158.832 39.1406C159.96 39.185 163.623 39.1139 165.05 39.1406C162.795 34.937 160.074 30.7245 157.908 26.4676C155.9 22.5306 151.884 21.7752 148.105 21.0109V18.9847C155.715 18.6914 157.943 13.7946 157.943 13.7946L165.112 2.88126H158.7C149.884 2.88126 144.715 10.773 143.332 13.2081L141.641 12.4793L144.477 0.277344L179.115 0.321779L179.079 2.81905C179.079 2.81905 174.914 2.80128 170.026 12.4793C168.441 15.6165 165.71 18.0071 162.425 19.1891L162.047 19.3224V20.2733C162.293 20.3799 162.549 20.4955 162.795 20.6021C165.966 22.0063 168.502 24.5569 169.885 27.7651C172.14 33.0174 175.742 38.2963 180.004 39.2384L179.203 42.0733H144.539C143.359 37.381 142.654 32.9285 141.624 28.2361L143.332 27.4985C146.45 33.7906 151.778 38.9007 158.806 39.1406H158.832Z" fill="black"/>
<path d="M94.8854 40.1359C93.6788 40.0204 92.7013 39.7182 91.9351 39.0517C91.1601 38.1185 90.6317 37.0432 90.2794 35.9323C90.0416 35.1769 89.8831 34.306 89.7862 33.5595C89.7774 33.4795 89.7686 33.3995 89.751 33.3106C89.4604 30.8844 87.9455 28.7338 86.2898 26.9475C86.2282 26.8853 86.1842 26.8142 86.1578 26.7608H93.5291V25.3656C91.2922 24.0503 90.0592 21.8729 89.8479 19.7578C89.5044 16.3629 89.5044 10.693 89.8479 7.28921C89.8743 6.99594 89.9183 6.72044 89.9712 6.45383C90.8607 4.24094 92.349 2.82789 94.8854 2.1347V0.215088C94.63 0.232862 93.1944 0.259523 91.5211 0.277297H82.864C81.5518 0.277297 80.3452 0.988265 79.6935 2.1347L68.3326 22.2018L56.3376 3.04118C55.2544 1.31709 53.3785 0.26841 51.3529 0.26841H47.4779H42.8543C42.8543 0.286185 42.8631 0.295072 42.8719 0.312846C41.9119 0.295072 41.2514 0.286185 41.225 0.26841C41.225 0.357281 41.2074 2.18802 41.1545 2.16136C46.2802 3.48554 47.2049 7.71579 47.4779 15.3942V26.9564C47.2049 34.6348 46.2802 38.8562 41.1545 40.1892C41.2074 40.1626 41.225 41.9933 41.225 42.0822C41.269 42.0466 57.6499 42.0822 57.6499 42.0822C57.6499 42.0822 57.6322 40.0648 57.6851 40.0826C52.5595 38.7584 51.6347 34.5282 51.3617 26.8497V11.875L64.2814 32.0753H66.2013C70.64 24.0769 74.5767 15.9097 79.1299 7.95575C79.3764 7.52917 79.7375 6.80931 80.0281 6.46272C80.2043 6.24942 80.0194 6.12501 80.627 6.21388V16.985C80.627 17.0472 80.7063 19.4556 82.1682 21.5352C83.4012 23.286 86.0433 24.7701 86.0433 24.7879H77.6239V26.2632L77.8529 26.3698C80.0546 27.8984 80.9353 30.8933 80.6887 33.8083C80.6094 34.4837 80.5037 35.1947 80.3804 35.7368C80.1339 36.6966 79.7728 37.6031 79.2796 38.394C78.214 39.8426 76.6023 40.1981 74.3653 40.1981C74.4182 40.1715 74.4358 42.0022 74.4358 42.0911C74.4358 42.0911 90.2265 42.0822 94.903 42.0911V40.1537L94.8854 40.1359Z" fill="black"/>
<path d="M127.7 14.2033C130.078 12.568 131.381 10.364 131.372 7.45795C131.364 3.83202 128.589 1.90352 125.586 1.13034C121.104 -0.0338694 116.929 0.348275 112.297 0.374937C111.962 0.374937 111.618 0.374937 111.284 0.374937C110.359 0.374937 109.434 0.374937 108.545 0.374937H98.3817V2.13458C100.936 2.82777 102.433 4.24971 103.322 6.47148C103.375 6.7381 103.419 7.02248 103.446 7.30687C103.789 10.7195 103.789 16.4073 103.446 19.8199C103.226 21.9439 101.993 24.1301 99.7468 25.4543V26.8585H107.145C107.118 26.9207 107.074 26.9829 107.012 27.054C105.357 28.8492 103.833 31.0087 103.534 33.4438C103.525 33.5238 103.516 33.6127 103.499 33.6926C103.402 34.4392 103.243 35.319 102.997 36.0744C102.644 37.1853 102.116 38.2695 101.341 39.2026C100.566 39.8781 99.5795 40.1802 98.3729 40.2958V42.242C101.235 42.242 108.281 42.242 113.327 42.242C113.732 42.242 114.243 42.242 114.833 42.242C115.96 42.2331 117.378 42.2065 118.919 42.1443C123.473 41.9576 129.162 41.4689 131.795 40.2513C136.463 38.1006 138.497 32.724 138.497 27.5606C138.497 21.1885 133.424 16.1762 127.682 14.2121L127.7 14.2033ZM111.61 4.48966C111.61 4.48966 112.156 4.45411 112.975 4.40968C114.842 4.32081 118.109 4.21416 119.545 4.48966C121.826 4.93402 124.142 6.68477 124.159 9.0754C124.177 10.6662 123.173 12.0792 122.028 13.1457C120.373 14.6832 118.356 15.7585 116.286 16.6383C115.749 16.8694 114.93 17.1715 114.032 17.5181C113.565 17.7048 113.08 17.6692 112.675 17.4826C112.059 17.2071 111.61 16.5672 111.61 15.794V4.48966ZM126.837 35.3723C125.225 36.5454 123.12 37.2297 121.218 37.2653C118.638 37.3097 116.057 37.3452 113.486 37.3897C113.274 36.9009 113.107 36.3943 112.975 35.87C112.851 35.3279 112.746 34.6169 112.658 33.9415C112.411 31.0176 113.301 28.0138 115.511 26.4763L115.74 26.3697V24.8855H107.294C107.294 24.8855 108.51 24.1835 109.681 23.197C109.778 23.1259 116.691 18.9312 118.523 18.2291C119.888 17.7048 121.341 17.2338 122.786 17.447C125.754 17.8825 127.999 21.0463 128.924 23.7302C130.157 27.3295 130.307 32.8661 126.854 35.3723H126.837Z" fill="black"/>
</svg>
