<svg width="232" height="45" viewBox="0 0 232 45" fill="none" xmlns="http://www.w3.org/2000/svg">
<path d="M33.7779 29.6359V0.228516C41.8098 0.228516 48.3269 6.81385 48.3269 14.9278C48.3269 23.0506 41.8098 29.627 33.7779 29.627V29.6359Z" fill="black"/>
<path d="M14.6845 14.821V44.2284C6.65262 44.2284 0.135498 37.6431 0.135498 29.5292C0.135498 21.4064 6.65262 14.8299 14.6845 14.8299V14.821Z" fill="black"/>
<path d="M19.361 44.0864C19.361 36.1058 25.7636 29.636 33.6633 29.636V44.0864H19.361Z" fill="black"/>
<path d="M29.1014 0.370605C29.1014 8.35121 22.6988 14.821 14.799 14.821V0.370605H29.1014Z" fill="black"/>
<path d="M93.3741 36.2035H97.5838V8.23584H92.4493L81.1765 31.6711L69.9037 8.23584H64.7693V36.2035H68.9878L69.0318 14.9545L79.2478 36.2035H83.1141L93.33 14.9545L93.3741 36.2035Z" fill="black"/>
<path d="M227.327 36.2035H231.537V8.23584H226.402L215.129 31.6711L203.857 8.23584H198.722V36.2035H202.941L202.985 14.9545L213.201 36.2035H217.058L227.283 14.9545L227.327 36.2035Z" fill="black"/>
<path d="M131.649 22.2241C131.649 13.6214 125.607 7.61377 116.959 7.61377C108.311 7.61377 102.155 13.7547 102.155 22.2241C102.155 30.6935 108.381 36.8345 116.959 36.8345C122.965 36.8345 127.835 33.9551 130.152 29.0939H125.176C123.423 31.5645 120.728 32.7642 116.95 32.7642C111.551 32.7642 107.694 29.5382 106.875 24.3482L106.778 23.7438H131.64V22.233L131.649 22.2241ZM106.91 19.8335L107.069 19.1848C108.205 14.4835 111.904 11.6841 116.968 11.6841C122.032 11.6841 125.819 14.5635 126.92 19.1937L127.078 19.8424H106.919L106.91 19.8335Z" fill="black"/>
<path d="M194.363 22.2241C194.363 13.6214 188.321 7.61377 179.673 7.61377C171.024 7.61377 164.868 13.7547 164.868 22.2241C164.868 30.6935 171.095 36.8345 179.673 36.8345C185.679 36.8345 190.549 33.9551 192.866 29.0939H187.89C186.137 31.5645 183.442 32.7642 179.664 32.7642C174.265 32.7642 170.408 29.5382 169.589 24.3482L169.492 23.7438H194.354V22.233L194.363 22.2241ZM169.624 19.8335L169.783 19.1848C170.919 14.4835 174.618 11.6841 179.682 11.6841C184.746 11.6841 188.533 14.5635 189.633 19.1937L189.792 19.8424H169.633L169.624 19.8335Z" fill="black"/>
<path d="M161.425 17.9939C161.425 13.2748 158.131 8.23584 148.893 8.23584H136.29V36.2035H140.465V27.2542H148.893C156.74 27.2542 161.425 23.7883 161.425 17.985V17.9939ZM140.456 12.4305H150.249C156.396 12.4305 157.18 15.3988 157.18 17.9939C157.18 21.6998 154.846 23.5839 150.249 23.5839H140.456V12.4305Z" fill="black"/>
</svg>
